<svg width="42" height="35" viewBox="0 0 42 35" fill="none" xmlns="http://www.w3.org/2000/svg">
<g filter="url(#filter0_d_2148_1659)">
<path d="M18.2464 14.684L18.2403 14.689L15.4668 17L18.2353 19.3068C18.5747 19.5865 18.8582 19.9276 19.0711 20.3121L24.7102 4.80459C24.7103 4.80439 24.7104 4.8042 24.7105 4.804C24.8674 4.37212 25.1079 3.97539 25.4182 3.63645C25.7286 3.29734 26.1028 3.0227 26.5194 2.82823C26.9359 2.63376 27.3867 2.52327 27.846 2.50305C28.3051 2.48284 28.7636 2.55323 29.1954 2.71019L18.2464 14.684ZM18.2464 14.684L18.2523 14.6789C18.9571 14.0823 19.3975 13.2313 19.4776 12.3113C19.5578 11.3914 19.2711 10.4771 18.6801 9.76759C18.0891 9.05808 17.2416 8.61087 16.3224 8.5234C15.4031 8.43593 14.4865 8.71528 13.7723 9.30059L13.766 9.30579L13.7597 9.31104L7.75995 14.3108C7.75986 14.3109 7.75977 14.311 7.75968 14.311C7.3655 14.6395 7.04835 15.0506 6.83069 15.5152C6.61298 15.9799 6.50012 16.4868 6.50012 17C6.50012 17.5132 6.61298 18.0201 6.83069 18.4848C7.04835 18.9494 7.3655 19.3605 7.75968 19.6889C7.75977 19.689 7.75986 19.6891 7.75995 19.6892L13.7548 24.6849C14.1058 24.9804 14.5115 25.2041 14.9488 25.3431C15.3891 25.4831 15.8527 25.5345 16.3129 25.4945C16.6403 25.4659 16.9614 25.3915 17.2669 25.2739L16.7105 26.804L16.7099 26.8054C16.3935 27.6776 16.4364 28.6398 16.8291 29.4804C17.221 30.3194 17.9295 30.9689 18.7993 31.2866M18.2464 14.684L18.7993 31.2866M18.7993 31.2866C19.1842 31.4281 19.5911 31.5004 20.0012 31.5M18.7993 31.2866L31.2896 7.19602L30.7332 8.72605C31.0387 8.60845 31.3598 8.53403 31.6872 8.50551C32.1474 8.46543 32.611 8.51685 33.0513 8.65683C33.4885 8.79584 33.8941 9.01945 34.2451 9.31491L40.2402 14.3108C40.2402 14.3109 40.2403 14.311 40.2404 14.311C40.6346 14.6395 40.9517 15.0505 41.1694 15.5152C41.3871 15.9799 41.5 16.4868 41.5 17C41.5 17.5132 41.3871 18.0201 41.1694 18.4848C40.9517 18.9494 40.6346 19.3605 40.2404 19.6889C40.2403 19.689 40.2402 19.6891 40.2402 19.6892L34.2452 24.685C33.8942 24.9805 33.4886 25.2041 33.0513 25.3431C32.611 25.4831 32.1474 25.5345 31.6871 25.4945C31.2269 25.4544 30.7792 25.3236 30.3697 25.1096C29.9603 24.8956 29.5973 24.6027 29.3016 24.2477C29.0059 23.8928 28.7834 23.4828 28.647 23.0414C28.5105 22.6 28.4628 22.136 28.5066 21.6761C28.5503 21.2162 28.6847 20.7695 28.902 20.3618C29.1177 19.957 29.4108 19.5985 29.7648 19.3068L32.5332 17L29.7647 14.6932C29.4254 14.4134 29.1419 14.0724 28.9289 13.6879L23.2897 29.1958C23.2897 29.1959 23.2897 29.1959 23.2896 29.196C23.0441 29.8713 22.5967 30.4546 22.0081 30.8668C21.4199 31.2788 20.7193 31.4998 20.0012 31.5M20.0012 31.5C20.0007 31.5 20.0002 31.5 19.9997 31.5L20 29.5L20.0027 31.5C20.0022 31.5 20.0017 31.5 20.0012 31.5ZM31.497 5.84594C31.5172 6.3052 31.4467 6.76394 31.2896 7.19597L31.497 5.84594ZM31.497 5.84594C31.4768 5.38665 31.3663 4.93584 31.1718 4.51928M31.497 5.84594L31.1718 4.51928M31.1718 4.51928C30.9773 4.10273 30.7027 3.72855 30.3636 3.41813M31.1718 4.51928L30.3636 3.41813M30.3636 3.41813C30.0247 3.10788 29.6279 2.8674 29.1961 2.71042L30.3636 3.41813Z" fill="#82BC4F" stroke="#16181D" stroke-width="4"/>
</g>
<defs>
<filter id="filter0_d_2148_1659" x="0.500122" y="0.499664" width="46.9999" height="41.0003" filterUnits="userSpaceOnUse" color-interpolation-filters="sRGB">
<feFlood flood-opacity="0" result="BackgroundImageFix"/>
<feColorMatrix in="SourceAlpha" type="matrix" values="0 0 0 0 0 0 0 0 0 0 0 0 0 0 0 0 0 0 127 0" result="hardAlpha"/>
<feOffset dy="4"/>
<feGaussianBlur stdDeviation="2"/>
<feComposite in2="hardAlpha" operator="out"/>
<feColorMatrix type="matrix" values="0 0 0 0 0 0 0 0 0 0 0 0 0 0 0 0 0 0 0.25 0"/>
<feBlend mode="normal" in2="BackgroundImageFix" result="effect1_dropShadow_2148_1659"/>
<feBlend mode="normal" in="SourceGraphic" in2="effect1_dropShadow_2148_1659" result="shape"/>
</filter>
</defs>
</svg>
